<svg width="23" height="24" viewBox="0 0 23 24" fill="none" xmlns="http://www.w3.org/2000/svg">
<path fill-rule="evenodd" clip-rule="evenodd" d="M15.375 0C11.51 0 9.18708 4.36407 11.2984 7.65864L14.862 13.2194C15.1017 13.5935 15.6483 13.5935 15.888 13.2194L19.4516 7.65864C21.5629 4.36407 19.24 0 15.375 0ZM15.375 7.14706C16.7212 7.14706 17.8125 6.08044 17.8125 4.76471C17.8125 3.44897 16.7212 2.38235 15.375 2.38235C14.0288 2.38235 12.9375 3.44897 12.9375 4.76471C12.9375 6.08044 14.0288 7.14706 15.375 7.14706Z" fill="#219C6B"/>
<path d="M0.75 8.26006C0.75 7.76583 1.20854 7.40319 1.68191 7.52306L6.75 8.80643V24L1.3181 22.6245C0.984224 22.54 0.75 22.2361 0.75 21.8875V8.26006Z" fill="#219C6B"/>
<path fill-rule="evenodd" clip-rule="evenodd" d="M10.1719 8.25C10.181 8.26281 10.19 8.27561 10.1991 8.28842L14.8652 14.8499C14.9532 14.9737 15 15.1178 15 15.2651V22.4686L8.25 24V8.68603L10.1719 8.25Z" fill="#219C6B"/>
<path fill-rule="evenodd" clip-rule="evenodd" d="M16.6198 14.9411C16.5416 15.0666 16.5 15.2127 16.5 15.362V22.665L21.568 23.9764C22.0415 24.099 22.5 23.7283 22.5 23.2234V9.29814C22.5 8.94194 22.2656 8.63141 21.932 8.54508L20.7916 8.25C20.7836 8.26298 20.7755 8.27596 20.7675 8.28895L16.6198 14.9411Z" fill="#219C6B"/>
</svg>
