<svg width="18" height="18" viewBox="0 0 18 18" fill="none" xmlns="http://www.w3.org/2000/svg">
<path fill-rule="evenodd" clip-rule="evenodd" d="M15.489 10.9285C15.7664 10.9285 15.9912 10.7046 15.9912 10.4285L15.9912 7.92848C15.9912 7.10005 15.3166 6.42848 14.4845 6.42848L3.43541 6.42848C2.60328 6.42848 1.92871 7.10005 1.92871 7.92848L1.92871 10.4285C1.92871 10.7046 2.15357 10.9285 2.43094 10.9285L15.489 10.9285Z" fill="#8D91AA"/>
<path d="M3.43579 13C3.43579 12.7239 3.66065 12.5 3.93802 12.5C4.2154 12.5 4.44026 12.7239 4.44026 13V15.5C4.44026 15.7761 4.2154 16 3.93802 16C3.66065 16 3.43579 15.7761 3.43579 15.5V13Z" fill="#8D91AA"/>
<path d="M8.45776 13C8.45776 12.7239 8.68262 12.5 8.96 12.5C9.23737 12.5 9.46223 12.7239 9.46223 13V15.5C9.46223 15.7761 9.23737 16 8.96 16C8.68262 16 8.45776 15.7761 8.45776 15.5V13Z" fill="#8D91AA"/>
<path d="M7.95581 0.499998C7.95581 0.223857 8.18067 0 8.45804 0H9.46251C9.73988 0 9.96474 0.223857 9.96474 0.499998V6.99997C9.96474 7.27611 9.73988 7.49997 9.46251 7.49997H8.45804C8.18067 7.49997 7.95581 7.27611 7.95581 6.99997V0.499998Z" fill="#8D91AA"/>
<path d="M13.4805 13C13.4805 12.7239 13.7053 12.5 13.9827 12.5C14.2601 12.5 14.4849 12.7239 14.4849 13V15.5C14.4849 15.7761 14.2601 16 13.9827 16C13.7053 16 13.4805 15.7761 13.4805 15.5V13Z" fill="#8D91AA"/>
<path d="M5.94678 15C5.94678 14.7239 6.17163 14.5 6.44901 14.5C6.72638 14.5 6.95124 14.7239 6.95124 15V17.5C6.95124 17.7761 6.72638 18 6.44901 18C6.17163 18 5.94678 17.7761 5.94678 17.5V15Z" fill="#8D91AA"/>
<path d="M10.969 15C10.969 14.7239 11.1939 14.5 11.4712 14.5C11.7486 14.5 11.9735 14.7239 11.9735 15V17.5C11.9735 17.7761 11.7486 18 11.4712 18C11.1939 18 10.969 17.7761 10.969 17.5V15Z" fill="#8D91AA"/>
</svg>
