<svg width="24" height="24" viewBox="0 0 24 24" fill="none" xmlns="http://www.w3.org/2000/svg">
<path fill-rule="evenodd" clip-rule="evenodd" d="M12.9374 6.41063C12.9471 5.1368 13.9927 4.10714 15.2811 4.10714C16.5755 4.10714 17.6248 5.14648 17.6248 6.42857C17.6248 7.71066 16.5755 8.75 15.2811 8.75C13.9927 8.75 12.9471 7.72036 12.9374 6.44654C12.9375 6.44056 12.9375 6.43458 12.9375 6.42859C12.9375 6.42259 12.9375 6.4166 12.9374 6.41063ZM11.3024 5.03573C11.8815 3.41278 13.4442 2.25 15.2811 2.25C17.1179 2.25 18.6806 3.41278 19.2598 5.03573L21.8436 5.03573C22.6203 5.03573 23.2499 5.65933 23.2499 6.42859C23.2499 7.19784 22.6203 7.82144 21.8436 7.82144L19.2598 7.82145C18.6806 9.44438 17.1179 10.6071 15.2811 10.6071C13.4442 10.6071 11.8815 9.44438 11.3024 7.82144L2.15625 7.82144C1.3796 7.82144 0.75 7.19784 0.75 6.42859C0.75 5.65933 1.3796 5.03573 2.15625 5.03573H11.3024Z" fill="#219C6B"/>
<path fill-rule="evenodd" clip-rule="evenodd" d="M11.0626 17.5534C11.0529 16.2796 10.0073 15.25 8.71893 15.25C7.42451 15.25 6.37518 16.2893 6.37518 17.5714C6.37518 18.8535 7.42451 19.8928 8.71893 19.8928C10.0073 19.8928 11.0529 18.8632 11.0626 17.5894C11.0625 17.5834 11.0625 17.5774 11.0625 17.5714C11.0625 17.5654 11.0625 17.5594 11.0626 17.5534ZM12.6976 16.1786C12.1185 14.5556 10.5558 13.3928 8.71893 13.3928C6.88205 13.3928 5.31937 14.5556 4.74023 16.1786L2.15637 16.1786C1.37972 16.1786 0.75012 16.8022 0.75012 17.5714C0.75012 18.3407 1.37972 18.9643 2.15637 18.9643L4.74024 18.9643C5.31939 20.5872 6.88207 21.75 8.71893 21.75C10.5558 21.75 12.1185 20.5872 12.6976 18.9643L21.8437 18.9643C22.6204 18.9643 23.25 18.3407 23.25 17.5714C23.25 16.8022 22.6204 16.1786 21.8437 16.1786H12.6976Z" fill="#219C6B"/>
</svg>
