<svg width="18" height="18" viewBox="0 0 18 18" fill="none" xmlns="http://www.w3.org/2000/svg">
<path fill-rule="evenodd" clip-rule="evenodd" d="M13.8426 8.43943V15.6989C13.8426 16.0378 13.5583 16.3125 13.2076 16.3125H4.82698C4.47626 16.3125 4.19194 16.0378 4.19194 15.6989V8.41421L2.43075 9.6484C2.16184 9.83683 1.78809 9.79319 1.57339 9.54828L0.150493 7.92523C-0.0551943 7.6906 -0.0494172 7.3451 0.164007 7.11702L3.56164 3.48613C3.96295 3.05726 4.53325 2.81254 5.13162 2.81253C5.71483 2.81252 6.34695 2.8125 6.34695 2.8125C6.34695 4.24825 7.54249 5.4578 9.01728 5.4578C10.4921 5.4578 11.6876 4.2483 11.6876 2.81255C11.6876 2.81255 12.316 2.81255 12.8977 2.81254C13.4991 2.81254 14.072 3.05971 14.4735 3.49233L17.8377 7.11717C18.0495 7.34538 18.0546 7.68962 17.8495 7.92351L16.4251 9.54825C16.2104 9.79316 15.8367 9.8368 15.5678 9.64837L13.8426 8.43943Z" fill="#8D91AA"/>
</svg>
