<svg width="18" height="18" viewBox="0 0 18 18" fill="none" xmlns="http://www.w3.org/2000/svg">
<path fill-rule="evenodd" clip-rule="evenodd" d="M3.46154 0C1.54978 0 0 1.54978 0 3.46154V14.5385C0 16.4502 1.54978 18 3.46154 18H14.5385C16.4502 18 18 16.4502 18 14.5385V3.46154C18 1.54978 16.4502 0 14.5385 0H3.46154ZM7.8708 13.8462V10.5578H9.35932C10.5377 10.5578 11.4636 10.2759 12.137 9.71234C12.8148 9.14429 13.1537 8.38764 13.1537 7.44237C13.1537 6.80332 12.9965 6.23305 12.6819 5.73157C12.3718 5.22565 11.931 4.83734 11.3595 4.56663C10.7925 4.29148 10.139 4.15391 9.39919 4.15391H5.53834V13.8462H7.8708ZM9.39919 8.75376H7.8708V5.9579H9.42577C9.84664 5.96234 10.1789 6.09991 10.4226 6.37062C10.6662 6.64133 10.788 7.00302 10.788 7.45568C10.788 7.8684 10.6684 8.18793 10.4292 8.41426C10.1944 8.64059 9.85107 8.75376 9.39919 8.75376Z" fill="#8D91AA"/>
</svg>
