<svg width="18" height="18" viewBox="0 0 18 18" fill="none" xmlns="http://www.w3.org/2000/svg">
<path fill-rule="evenodd" clip-rule="evenodd" d="M8.38636 0.613636C8.38636 0.274734 8.6611 0 9 0C9.3389 0 9.61364 0.274734 9.61364 0.613636V3.06818C9.61364 3.40708 9.3389 3.68182 9 3.68182C8.6611 3.68182 8.38636 3.40708 8.38636 3.06818V0.613636ZM8.79545 13.0909C11.0548 13.0909 12.8864 11.2593 12.8864 9C12.8864 6.74065 11.0548 4.90909 8.79545 4.90909C6.53611 4.90909 4.70455 6.74065 4.70455 9C4.70455 11.2593 6.53611 13.0909 8.79545 13.0909ZM9 14.3182C8.6611 14.3182 8.38636 14.5929 8.38636 14.9318V17.3864C8.38636 17.7253 8.6611 18 9 18C9.3389 18 9.61364 17.7253 9.61364 17.3864V14.9318C9.61364 14.5929 9.3389 14.3182 9 14.3182ZM17.3864 8.38636C17.7253 8.38636 18 8.6611 18 9C18 9.3389 17.7253 9.61364 17.3864 9.61364H14.9318C14.5929 9.61364 14.3182 9.3389 14.3182 9C14.3182 8.6611 14.5929 8.38636 14.9318 8.38636H17.3864ZM3.68182 9C3.68182 8.6611 3.40708 8.38636 3.06818 8.38636H0.613636C0.274734 8.38636 0 8.6611 0 9C0 9.3389 0.274734 9.61364 0.613636 9.61364H3.06818C3.40708 9.61364 3.68182 9.3389 3.68182 9ZM15.364 14.4961C15.6037 14.7358 15.6037 15.1243 15.364 15.3639C15.1244 15.6036 14.7359 15.6036 14.4962 15.3639L12.7606 13.6283C12.521 13.3887 12.521 13.0001 12.7606 12.7605C13.0002 12.5208 13.3888 12.5208 13.6284 12.7605L15.364 14.4961ZM5.23943 5.23953C5.47907 4.99989 5.47907 4.61135 5.23943 4.37171L3.50381 2.63609C3.26417 2.39645 2.87563 2.39645 2.636 2.63609C2.39636 2.87573 2.39636 3.26426 2.636 3.5039L4.37162 5.23953C4.61126 5.47917 4.99979 5.47917 5.23943 5.23953ZM3.50389 15.364C3.26425 15.6037 2.87571 15.6037 2.63607 15.364C2.39643 15.1244 2.39643 14.7359 2.63607 14.4962L4.3717 12.7606C4.61134 12.521 4.99987 12.521 5.23951 12.7606C5.47915 13.0002 5.47915 13.3888 5.23951 13.6284L3.50389 15.364ZM12.7605 5.23943C13.0001 5.47907 13.3886 5.47907 13.6283 5.23943L15.3639 3.50381C15.6036 3.26417 15.6036 2.87564 15.3639 2.636C15.1243 2.39636 14.7357 2.39636 14.4961 2.636L12.7605 4.37162C12.5208 4.61126 12.5208 4.99979 12.7605 5.23943Z" fill="#8D91AA"/>
</svg>
