<svg width="18" height="18" viewBox="0 0 18 18" fill="none" xmlns="http://www.w3.org/2000/svg">
<path fill-rule="evenodd" clip-rule="evenodd" d="M5.28806 2.25L6.41205 13.4005L7.30978 7.3125L7.83543 11.3864L9.09848 2.25L10.2058 11.4042L10.8092 7.3125L11.5897 13.3622L12.8699 2.25L13.9939 13.4005L14.8916 7.3125L15.6818 13.4363C15.8144 14.4646 15.1647 15.3945 14.2225 15.6686L14.2307 15.75L13.6474 15.75L11.8978 15.75L11.3147 15.75H10.7315L9.56497 15.75H8.39845L7.2322 15.75H6.64889L6.0656 15.75L4.31599 15.75L3.73283 15.75L3.74233 15.6675C2.80966 15.3915 2.1733 14.4604 2.32346 13.4421L3.22733 7.3125L4.0079 13.3622L5.28806 2.25Z" fill="#8D91AA"/>
</svg>
